<?xml version="1.0" standalone="no"?>
<!DOCTYPE svg PUBLIC "-//W3C//DTD SVG 20010904//EN"
 "http://www.w3.org/TR/2001/REC-SVG-20010904/DTD/svg10.dtd">
<svg version="1.0" xmlns="http://www.w3.org/2000/svg"
 width="1544.000000pt" height="1544.000000pt" viewBox="0 0 1544.000000 1544.000000"
 preserveAspectRatio="xMidYMid meet">
<metadata>
Created by potrace 1.11, written by Peter Selinger 2001-2013
</metadata>
<g transform="translate(0.000000,1544.000000) scale(0.100000,-0.100000)"
fill="#000000" stroke="none">
<path d="M2290 8332 l0 -3288 328 -1 329 0 -1 3286 -1 3286 -327 3 -328 2 0
-3288z"/>
<path d="M5579 9097 c-135 -106 -261 -204 -280 -219 -19 -15 -194 -151 -389
-302 -195 -151 -366 -284 -380 -295 -14 -10 -102 -79 -196 -153 -94 -73 -186
-144 -204 -158 -34 -26 -183 -142 -210 -163 -8 -7 -44 -35 -80 -62 -36 -27
-70 -54 -76 -60 -7 -5 -107 -83 -223 -173 l-211 -164 0 -205 0 -205 27 -22
c32 -25 309 -242 373 -291 25 -19 104 -81 176 -137 310 -242 557 -434 577
-448 12 -8 27 -19 33 -25 6 -5 54 -44 108 -85 82 -63 369 -286 471 -366 17
-12 95 -74 175 -136 80 -62 161 -125 180 -140 148 -115 340 -263 361 -279 l26
-18 0 387 c0 262 -3 391 -11 401 -5 7 -54 46 -107 87 -54 40 -106 80 -116 88
-10 8 -92 72 -183 141 -243 185 -443 338 -460 352 -8 7 -145 112 -305 233
-159 122 -299 229 -310 238 -11 10 -36 28 -55 42 -37 26 -42 30 -78 59 -12 10
-52 41 -87 67 -36 27 -65 52 -65 56 0 4 84 71 188 149 103 79 210 161 238 183
28 23 64 50 79 61 23 17 86 65 252 193 33 26 182 139 343 262 80 61 159 121
175 134 17 13 136 105 266 205 l236 181 0 390 c0 214 -3 390 -6 389 -3 0 -117
-87 -252 -192z"/>
<path d="M8026 9188 c-40 -100 -271 -684 -271 -688 -1 -6 -231 -590 -250 -635
-8 -16 -66 -165 -131 -330 -64 -165 -140 -356 -167 -425 -27 -69 -59 -152 -72
-185 -35 -91 -274 -697 -284 -720 -5 -11 -37 -92 -71 -180 -101 -259 -191
-489 -200 -510 -5 -11 -19 -45 -30 -75 -11 -30 -24 -64 -29 -75 -5 -11 -24
-58 -42 -105 -17 -47 -40 -103 -50 -125 -10 -23 -20 -52 -24 -66 l-6 -25 383
0 383 1 41 105 c22 58 44 114 49 125 4 11 26 65 47 120 21 55 43 109 48 120 4
11 40 101 78 200 39 99 109 277 155 395 47 118 135 341 195 495 61 154 145
368 187 475 42 107 97 247 121 310 25 63 49 124 54 135 5 11 52 130 105 265
53 135 146 371 206 525 61 154 142 361 181 460 39 99 95 240 124 313 l52 132
-384 0 -385 0 -13 -32z"/>
<path d="M10443 9203 c-6 -16 -72 -186 -218 -558 -24 -60 -81 -207 -128 -325
-186 -469 -240 -609 -273 -695 -19 -49 -39 -99 -44 -110 -5 -11 -43 -108 -85
-215 -41 -107 -79 -204 -84 -215 -11 -25 -37 -91 -146 -370 -47 -121 -90 -229
-95 -240 -5 -11 -20 -49 -33 -85 -36 -92 -236 -601 -246 -625 -11 -26 -19 -46
-146 -370 -58 -148 -112 -285 -120 -304 -9 -18 -13 -36 -10 -40 4 -3 176 -6
384 -7 l376 -1 37 91 c20 50 71 179 113 286 41 107 79 204 84 215 5 11 66 164
135 340 172 440 281 718 392 998 52 131 94 241 94 243 0 3 8 24 19 47 10 23
67 166 125 317 59 151 112 284 117 295 8 18 100 251 242 615 25 63 89 225 142
360 53 135 107 273 120 308 l24 62 -385 0 c-357 0 -385 -1 -391 -17z"/>
<path d="M12721 9132 c-18 -48 -39 -100 -46 -117 -7 -16 -29 -73 -50 -125 -20
-52 -42 -108 -49 -125 -7 -16 -23 -57 -36 -90 -12 -33 -26 -69 -31 -80 -5 -11
-72 -182 -150 -380 -77 -198 -179 -456 -225 -573 -46 -118 -84 -216 -84 -218
0 -3 -8 -24 -19 -47 -10 -23 -76 -188 -146 -367 -118 -301 -167 -426 -342
-870 -352 -894 -421 -1070 -425 -1085 -3 -10 701 -19 747 -10 13 3 26 18 34
42 16 45 218 559 231 588 5 11 45 114 90 230 46 115 121 307 167 425 47 118
109 276 138 350 29 74 82 209 118 300 36 91 95 242 131 335 37 94 71 179 76
190 5 11 54 135 109 275 54 140 128 329 164 420 36 91 108 275 161 410 53 135
100 254 105 265 18 41 131 332 131 338 0 4 -172 7 -382 7 l-383 0 -34 -88z"/>
</g>
</svg>
